<?xml version="1.0" encoding="iso-8859-1"?>
<!-- Generator: Adobe Illustrator 19.0.0, SVG Export Plug-In . SVG Version: 6.00 Build 0)  -->
<svg version="1.1" id="Capa_1" xmlns="http://www.w3.org/2000/svg" xmlns:xlink="http://www.w3.org/1999/xlink" x="0px" y="0px"
	 viewBox="0 0 512 512" style="enable-background:new 0 0 512 512;" xml:space="preserve">
<g>
	<g>
		<path d="M261.477,93.221c-1.514-23.642-20.399-42.582-44.004-44.211c-4.253-13.708-17.053-23.693-32.141-23.693
			c-4.413,0-8.701,0.847-12.677,2.464C161.832,10.797,142.791,0,122.206,0c-29.585,0-54.194,21.351-58.93,49.802
			c-1.692-0.067-3.385-0.045-5.073,0.067C34.884,51.433,16.109,70.193,14.529,93.51c-0.104,1.543-0.134,3.097-0.09,4.617
			c0.735,25.585,21.37,45.626,46.976,45.626H214.15c0.002,0,0.001,0,0.003,0c25.554,0,46.368-19.993,47.386-45.519
			C261.604,96.571,261.583,94.884,261.477,93.221z M241.552,97.441c-0.587,14.754-12.624,26.312-27.402,26.311H61.414
			c-14.709,0-26.561-11.509-26.983-26.204c-0.026-0.884-0.009-1.791,0.053-2.691c0.905-13.374,11.678-24.135,25.059-25.032
			c0.606-0.041,1.214-0.062,1.822-0.062c1.67,0,3.343,0.153,4.993,0.458c0.344,0.064,0.688,0.109,1.032,0.136
			c2.114,0.208,6.454,0.175,10.222-2.771c2.745-2.145,4.447-5.282,4.82-8.862c0.021-0.173,0.037-0.346,0.048-0.518
			c0.005-0.076,0.01-0.151,0.013-0.227C83.429,36.683,100.873,20,122.206,20c16.412,0,31.349,10.319,37.167,25.678
			c1.199,3.164,3.915,5.506,7.22,6.228c3.302,0.719,6.748-0.276,9.156-2.653c2.571-2.538,5.974-3.935,9.581-3.935
			c7.484,0,13.579,6.058,13.642,13.528c-0.004,0.103-0.006,0.208-0.008,0.313c-0.028,2.908,1.211,5.685,3.396,7.606
			c2.184,1.92,5.087,2.794,7.979,2.396c1.83-0.254,3.693-0.325,5.529-0.214c13.743,0.837,24.769,11.822,25.648,25.551v0.001
			C241.578,95.475,241.591,96.466,241.552,97.441z"/>
	</g>
</g>
<g>
	<g>
		<path d="M206.334,335.881c-0.13-0.64-0.32-1.271-0.57-1.87s-0.56-1.179-0.92-1.73c-0.36-0.54-0.78-1.06-1.24-1.52
			c-0.46-0.46-0.98-0.88-1.52-1.24c-0.549-0.359-1.129-0.67-1.73-0.92c-0.599-0.25-1.229-0.439-1.87-0.57
			c-1.29-0.26-2.62-0.26-3.91,0c-0.64,0.131-1.269,0.32-1.869,0.57c-0.6,0.25-1.18,0.561-1.73,0.92c-0.541,0.36-1.06,0.78-1.52,1.24
			c-0.46,0.46-0.881,0.981-1.24,1.52c-0.36,0.55-0.67,1.131-0.92,1.73s-0.44,1.23-0.57,1.87c-0.13,0.649-0.2,1.3-0.2,1.95
			c0,2.63,1.071,5.21,2.931,7.069c0.46,0.46,0.98,0.88,1.52,1.25c0.549,0.36,1.129,0.67,1.73,0.92c0.599,0.25,1.229,0.44,1.869,0.57
			c0.65,0.129,1.301,0.19,1.95,0.19c0.66,0,1.311-0.06,1.959-0.189c0.641-0.13,1.27-0.32,1.87-0.57c0.6-0.25,1.18-0.56,1.73-0.92
			c0.541-0.37,1.06-0.79,1.52-1.25c0.46-0.46,0.88-0.97,1.24-1.52c0.36-0.54,0.67-1.12,0.92-1.72c0.25-0.61,0.44-1.23,0.57-1.87
			c0.13-0.65,0.2-1.3,0.2-1.96C206.534,337.181,206.464,336.53,206.334,335.881z"/>
	</g>
</g>
<g>
	<g>
		<path d="M68.575,335.88c-0.13-0.64-0.319-1.271-0.569-1.87s-0.561-1.179-0.92-1.73c-0.37-0.54-0.79-1.06-1.25-1.52
			c-0.46-0.46-0.971-0.88-1.521-1.24c-0.54-0.359-1.12-0.67-1.72-0.92c-0.61-0.25-1.24-0.439-1.87-0.57c-1.29-0.26-2.62-0.26-3.91,0
			c-0.64,0.131-1.269,0.32-1.87,0.57c-0.609,0.25-1.189,0.561-1.729,0.92c-0.55,0.36-1.061,0.78-1.521,1.24
			c-0.46,0.46-0.88,0.981-1.239,1.52c-0.36,0.55-0.67,1.131-0.92,1.73s-0.44,1.23-0.57,1.87c-0.13,0.649-0.2,1.3-0.2,1.95
			c0,0.66,0.07,1.31,0.2,1.96c0.13,0.64,0.32,1.26,0.57,1.87c0.25,0.6,0.56,1.18,0.92,1.72c0.359,0.55,0.779,1.06,1.239,1.52
			c0.46,0.46,0.971,0.88,1.521,1.25c0.54,0.36,1.12,0.67,1.729,0.92c0.6,0.25,1.23,0.44,1.87,0.57c0.64,0.129,1.3,0.19,1.95,0.19
			c0.651,0,1.31-0.06,1.959-0.191c0.63-0.13,1.26-0.32,1.87-0.57c0.6-0.25,1.18-0.56,1.72-0.92c0.55-0.37,1.061-0.79,1.521-1.25
			c1.86-1.859,2.93-4.439,2.93-7.069C68.765,337.18,68.705,336.529,68.575,335.88z"/>
	</g>
</g>
<g>
	<g>
		<path d="M494.285,405.75c-0.914-3.795-3.953-6.712-7.783-7.469c-1.337-0.265-20.085-3.842-41.034-1.334v-27.559
			c0-5.522-4.478-10-10-10c-1.583,0-3.328,0-5.19,0.03c-5.009-8.473-10.904-15.768-16.16-21.459v-70.036
			c45.989-12.248,79.97-54.256,79.97-104.052c0-29.217-11.865-57.08-32.74-77.316c0.448-3.347,0.674-6.733,0.674-10.123
			c0-41.682-33.909-75.593-75.589-75.593c-41.681,0-75.59,33.911-75.59,75.593c0,3.39,0.227,6.776,0.674,10.123
			c-20.875,20.236-32.74,48.1-32.74,77.316c0,49.792,33.976,91.798,79.961,104.049v29.235l-18.331-14.148
			c-3.605-2.782-8.632-2.778-12.231,0.008l-28.24,21.858l-28.421-21.874c-3.602-2.771-8.614-2.768-12.21,0.009l-28.33,21.866
			l-28.331-21.866c-3.6-2.779-8.621-2.779-12.221,0l-28.33,21.866l-28.331-21.866c-3.6-2.779-8.621-2.779-12.221,0l-28.33,21.866
			L64.88,283.008c-3.6-2.779-8.621-2.779-12.221,0l-34.44,26.582c-2.453,1.894-3.89,4.817-3.89,7.916V502c0,5.522,4.478,10,10,10
			h344.409c1.276,0,2.497-0.24,3.619-0.676c11.291-0.403,19.417-1.955,20.281-2.126c0.404-0.08,0.798-0.184,1.183-0.31
			c0.384,0.126,0.779,0.23,1.183,0.31c0.993,0.197,11.594,2.222,25.57,2.222c18.709,0,43.466-3.63,59.302-20.131v0.001
			C507.539,462.464,494.839,408.053,494.285,405.75z M68.767,492V377.791c0-5.522-4.478-10-10-10c-5.522,0-10,4.478-10,10V492
			h-14.44V322.419l24.44-18.864l24.441,18.864V492H68.767z M103.209,492V322.419l24.44-18.864l24.441,18.864V492H103.209z
			 M220.972,492h-14.441V377.791c0-5.522-4.478-10-10-10c-5.522,0-10,4.478-10,10V492h-14.44V322.419l24.44-18.864l24.441,18.864
			V492z M240.972,492V322.419l24.449-18.87l24.529,18.879V492H240.972z M298.775,163.871c0-25.344,10.968-49.439,30.091-66.108
			c2.74-2.389,3.968-6.077,3.207-9.632c-0.817-3.816-1.231-7.753-1.231-11.699c0-30.654,24.938-55.593,55.59-55.593
			c30.651,0,55.589,24.938,55.589,55.593c0,3.946-0.414,7.883-1.231,11.699c-0.761,3.555,0.467,7.243,3.208,9.632
			c19.122,16.669,30.09,40.765,30.09,66.108c0,44.955-34.013,82.115-77.655,87.093v-50.386c0.049-0.043,0.098-0.087,0.146-0.132
			l38.101-35.102c4.063-3.742,4.321-10.068,0.579-14.13c-3.742-4.063-10.068-4.322-14.13-0.579l-24.696,22.752v-26.074
			l26.914-24.957c4.05-3.756,4.288-10.083,0.533-14.133c-3.757-4.05-10.084-4.285-14.133-0.533l-13.314,12.346V97.547
			c0-5.522-4.478-10-10-10c-5.522,0-10,4.478-10,10v75.842l-24.697-22.753c-4.063-3.743-10.389-3.482-14.13,0.579
			c-3.742,4.062-3.483,10.388,0.579,14.13l38.101,35.102c0.049,0.045,0.098,0.089,0.147,0.133v50.385
			C332.789,245.986,298.775,208.826,298.775,163.871z M393.827,345.835c3.981,3.79,9.336,9.402,14.329,16.294
			c-5.247,1.489-10.248,3.787-14.336,7.333c-4.087-3.544-9.086-5.841-14.331-7.33C384.479,355.26,389.843,349.636,393.827,345.835z
			 M378.736,332.588v-61.329c2.542,0.18,5.108,0.272,7.695,0.272c2.584,0,5.147-0.092,7.686-0.272v51.261
			c-2.262-0.068-4.543,0.63-6.431,2.094C387.332,324.889,383.714,327.723,378.736,332.588z M309.951,322.41l24.353-18.849
			l24.433,18.857v34.727c-0.467,0.748-0.927,1.505-1.381,2.272c-1.862-0.03-3.606-0.03-5.188-0.03c-2.654,0-5.199,1.055-7.075,2.933
			c-1.875,1.878-2.928,4.424-2.925,7.078l0.03,27.551c-12.674-1.521-24.545-0.813-32.247,0.042V322.41z M382.227,490.583
			c-3.668,0.437-8.038,0.773-12.768,0.854c-0.239-0.017-0.48-0.026-0.723-0.026c-0.315,0-0.627,0.015-0.936,0.044
			c-15.704,0.063-34.843-2.795-45.608-14.013v-0.001c-14.384-14.986-13.196-44.545-10.65-60.544
			c16.072-1.913,45.591-1.908,60.035,13.143C385.961,445.025,384.773,474.584,382.227,490.583z M393.818,426.661
			c-2.152-3.737-4.731-7.263-7.812-10.472c-6.713-6.994-15.027-11.675-23.804-14.748l-0.024-21.784
			c19.896,1.209,21.558,6.435,21.634,14.382c0.054,5.484,4.53,9.903,10.016,9.903c5.486,0,9.946-4.418,10-9.903
			c0.076-7.948,1.739-13.174,21.64-14.382v21.773c-8.79,3.073-17.117,7.757-23.838,14.759
			C398.55,419.398,395.97,422.925,393.818,426.661z M465.443,477.44c-14.384,14.989-43.965,15.012-60.052,13.126
			c-0.859-5.34-1.566-12.189-1.587-19.504c0.001-0.279,0.001-0.559,0-0.84c0.062-14.363,2.82-30.353,12.255-40.183
			c14.383-14.987,43.961-15.015,60.052-13.126C478.682,432.893,479.89,462.388,465.443,477.44z"/>
	</g>
</g>
<g>
</g>
<g>
</g>
<g>
</g>
<g>
</g>
<g>
</g>
<g>
</g>
<g>
</g>
<g>
</g>
<g>
</g>
<g>
</g>
<g>
</g>
<g>
</g>
<g>
</g>
<g>
</g>
<g>
</g>
</svg>
