<svg id="Layer_1" enable-background="new 0 0 512 512" height="512" viewBox="0 0 512 512" width="512" xmlns="http://www.w3.org/2000/svg"><g><path d="m353.285 418.873c-4.143 0-7.5 3.357-7.5 7.5v78.127c0 4.143 3.357 7.5 7.5 7.5s7.5-3.357 7.5-7.5v-78.127c0-4.143-3.357-7.5-7.5-7.5zm100.277 4.438c.192-1.154.377-2.288.553-3.401 2.364-15.012 5.534-56.897 5.14-75.887-.304-14.656-11.465-26.801-25.612-28.729 1.111-1.871 2.475-3.73 4.16-5.51 8.813-9.305 20.103-10.101 23.669-10.101 4.189 0 7.725-3.131 7.762-7.435.037-4.339-3.48-7.565-7.724-7.565-4.933 0-19.983 1.053-32.522 12.737v-15.5c0-4.143-3.357-7.5-7.5-7.5s-7.5 3.357-7.5 7.5v15.501c-12.792-11.922-28.18-12.79-32.811-12.736-4.142.035-7.471 3.422-7.436 7.564.036 4.291 3.545 7.435 7.762 7.435 3.567 0 14.856.797 23.669 10.101 1.721 1.816 3.107 3.717 4.23 5.628-13.119 2.156-23.598 13.105-24.73 26.7-.264 3.194-.473 6.396-.636 9.6-3.156-1.675-6.445-3.109-9.868-4.261l-84.4-28.399c-4.863-1.636-8.131-6.182-8.131-11.312v-.006c31.576-17.796 52.95-51.648 52.95-90.404v-8.513c13.977-.483 25.201-11.998 25.201-26.091 0-3.973-.896-7.739-2.49-11.113 17.276.968 32.803-11.913 32.803-29.873 0-16.472-13.401-29.873-29.873-29.873h-28.623v-11.145c0-55.539-45.183-100.723-100.722-100.723-55.538 0-100.721 45.184-100.721 100.722v11.145h-31.377c-16.472 0-29.874 13.401-29.874 29.873 0 18.189 17.187 32.685 35.557 29.873-1.594 3.375-2.49 7.141-2.49 11.113 0 14.096 11.228 25.612 25.208 26.091v8.513c0 38.752 21.37 72.601 52.94 90.398v.012c0 5.13-3.268 9.676-8.132 11.312l-84.401 28.4c-26.812 9.027-44.827 34.1-44.827 62.388v94.66c0 4.143 3.358 7.5 7.5 7.5s7.5-3.357 7.5-7.5v-94.66c0-21.842 13.91-41.201 34.612-48.172l8.603-2.895v145.727c0 4.143 3.358 7.5 7.5 7.5s7.5-3.357 7.5-7.5v-150.771l15-5.048v36.841c0 15.163 12.336 27.5 27.5 27.5h144.803c15.163 0 27.5-12.337 27.5-27.5v-36.841l15 5.048v37.644c0 4.143 3.357 7.5 7.5 7.5s7.5-3.357 7.5-7.5v-32.598l8.599 2.893c5.153 1.735 9.931 4.261 14.258 7.506.092 16.115 1.428 32.085 4.041 48.028-8.492 1.93-14.857 9.527-14.857 18.594v57.122c0 10.521 8.561 19.082 19.082 19.082h41.257c19.27 0 34.947-15.678 34.947-34.947v-25.392c.001-11.66-5.745-21.998-14.549-28.35zm-118.975-229.509v-22.152c5.703.465 10.201 5.254 10.201 11.076s-4.499 10.611-10.201 11.076zm-207.405.001c-5.704-.464-10.204-5.255-10.204-11.077 0-5.821 4.5-10.612 10.204-11.076zm7.505-37.193c-.013 0-.026.002-.039.002h-35.863c-8.201 0-14.874-6.672-14.874-14.873s6.672-14.873 14.874-14.873h68.845c4.142 0 7.5-3.357 7.5-7.5s-3.358-7.5-7.5-7.5h-22.468v-11.145c0-47.267 38.455-85.722 85.722-85.722s85.722 38.455 85.722 85.722v11.145h-113.976c-4.142 0-7.5 3.357-7.5 7.5s3.358 7.5 7.5 7.5h157.599c8.201 0 14.873 6.672 14.873 14.873s-6.672 14.873-14.873 14.873h-33.103c-.013 0-.025-.002-.039-.002s-.026.002-.039.002h-192.322c-.013 0-.026-.002-.039-.002zm7.5 60.72v-45.718h177.397l.003 45.718c0 48.909-39.791 88.7-88.7 88.7s-88.7-39.791-88.7-88.7zm52.108 97.027c11.385 4.308 23.716 6.673 36.591 6.673 12.872 0 25.2-2.364 36.583-6.67 2.288 9.035 9.124 16.343 18.286 19.167-15.348 12.665-34.785 19.76-54.872 19.76-20.089 0-39.525-7.095-54.874-19.76 9.095-2.919 16.023-10.097 18.286-19.17zm121.49 71.165c0 6.893-5.607 12.5-12.5 12.5h-144.803c-6.893 0-12.5-5.607-12.5-12.5v-41.891l13.741-4.624c18.869 18.664 44.528 29.28 71.161 29.28 26.631 0 52.29-10.616 71.159-29.279l13.742 4.624zm83.836-42.169c.615-7.394 6.856-13.194 14.26-13.321.196 2.573.066 4.497-.014 5.305-.433 4.372 3.047 8.24 7.473 8.24 4.501 0 8.216-3.738 7.768-8.243-.081-.81-.211-2.736-.015-5.314 8.172-.39 14.989 6.112 15.166 14.322.041 1.891.044 3.785.059 5.679h-12.776c-4.143 0-7.5 3.357-7.5 7.5s3.357 7.5 7.5 7.5h12.621c-.236 8.166-.702 16.333-1.421 24.479h-11.2c-4.143 0-7.5 3.357-7.5 7.5s3.357 7.5 7.5 7.5h9.581c-.534 4.268-1.114 8.528-1.78 12.772-2.007-.36-4.069-.558-6.178-.558h-30.357c-1.234-7.222-2.207-14.485-2.884-21.673-.324-3.416-.571-6.846-.774-10.281h12.347c4.143 0 7.5-3.357 7.5-7.5s-3.357-7.5-7.5-7.5h-12.858c-.068-8.811.256-17.635.982-26.407zm53.491 133.7c0 10.999-8.948 19.947-19.947 19.947h-41.257c-2.251 0-4.082-1.831-4.082-4.082v-57.122c0-2.251 1.831-4.082 4.082-4.082h41.257c10.999 0 19.947 8.948 19.947 19.947zm-178.35-256.862c4.143 0 7.5-3.357 7.5-7.5v-15.522c0-4.143-3.357-7.5-7.5-7.5s-7.5 3.357-7.5 7.5v15.522c0 4.143 3.357 7.5 7.5 7.5zm-87.757-30.522c-4.142 0-7.5 3.357-7.5 7.5v15.522c0 4.143 3.358 7.5 7.5 7.5s7.5-3.357 7.5-7.5v-15.522c0-4.143-3.358-7.5-7.5-7.5zm44.987 80.577c7.626-.273 13.345-3.258 16.8-5.713 3.376-2.399 4.168-7.082 1.769-10.458s-7.08-4.169-10.458-1.769c-1.461 1.038-4.526 2.802-8.647 2.949-4.655.174-8.141-1.78-9.802-2.956-3.379-2.394-8.061-1.595-10.455 1.785-2.394 3.381-1.594 8.062 1.786 10.455 2.809 1.991 10.77 6.002 19.007 5.707z"/></g></svg>