<?xml version="1.0" encoding="iso-8859-1"?>
<!-- Generator: Adobe Illustrator 19.0.0, SVG Export Plug-In . SVG Version: 6.00 Build 0)  -->
<svg version="1.1" id="Layer_1" xmlns="http://www.w3.org/2000/svg" xmlns:xlink="http://www.w3.org/1999/xlink" x="0px" y="0px"
	 viewBox="0 0 512 512" style="enable-background:new 0 0 512 512;" xml:space="preserve">
<g>
	<g>
		<g>
			<path d="M256.479,263.521c-1.74,5.625,1.406,11.594,7.042,13.333c1.042,0.323,2.104,0.479,3.146,0.479
				c4.563,0,8.781-2.938,10.188-7.521c3.639-11.777,7.771-22.617,12.184-33.013C304.193,249.289,321.091,256,339.615,256
				c83.677,0,151.052-113.323,151.052-207.156c0-15.167-12.344-27.51-27.51-27.51C369.323,21.333,256,88.708,256,172.385
				c0,17.523,5.949,33.607,17.142,48.139C266.96,233.945,261.272,248.005,256.479,263.521z M463.156,42.667
				c3.406,0,6.177,2.771,6.177,6.177c0,83.646-59.854,185.823-129.719,185.823c-15.074,0-28.949-6.125-41.341-17.882
				c25.388-48.538,62.932-81.915,122.435-111.212c5.292-2.604,7.458-9,4.865-14.281c-2.615-5.292-9.021-7.438-14.281-4.865
				c-59.798,29.443-99.514,64.229-126.987,112.255c-4.454-8.297-6.971-17.046-6.971-26.297
				C277.333,102.521,379.51,42.667,463.156,42.667z"/>
			<path d="M448,352c-20.822,0-64.004,11.603-85.885,17.889c-2.902-30.612-42.125-41.448-82.667-49.681
				c-18.49-3.75-32.26-10.385-45.573-16.813C217.458,295.479,201.958,288,181.333,288c-23.625,0-45.139,4.828-57.285,8.171
				c-3.212-11.169-12.328-20.174-24.413-22.587L12.76,256.208c-3.146-0.594-6.385,0.188-8.854,2.208
				C1.438,260.448,0,263.469,0,266.667v170.667C0,443.229,4.771,448,10.667,448H77.5c13.165,0,24.384-8.381,29.212-20.147
				c23.875,11.383,134.342,62.814,181.288,62.814c41.375,0,126.531-41.865,182.875-69.563c14.708-7.229,26.865-13.208,34.75-16.667
				c3.875-1.708,6.375-5.542,6.375-9.771C512,369.542,485.688,352,448,352z M103.917,306.469L88.052,417.51
				c-0.74,5.219-5.281,9.156-10.552,9.156H21.333v-146.99L95.448,294.5C101,295.615,104.719,300.865,103.917,306.469z
				 M461.458,401.958c-51.25,25.198-137.042,67.375-173.458,67.375c-38.802,0-140.688-45.427-176.667-62.927
				c-0.043-0.021-0.09-0.013-0.133-0.034l12.557-87.898c7.759-2.43,31.513-9.141,57.576-9.141c15.74,0,27.896,5.865,43.281,13.281
				c13.813,6.667,29.479,14.219,50.594,18.51c46.354,9.396,66.125,19.031,66.125,32.208c0,2.604-0.792,4.208-2.823,5.719
				c-6.76,5.063-33.229,13.583-132.813-15.948c-5.635-1.677-11.583,1.563-13.26,7.198c-1.677,5.646,1.552,11.583,7.198,13.26
				c49.125,14.563,86.698,21.823,113.323,21.823c17.365,0,30.073-3.083,38.313-9.24c0.711-0.53,1.23-1.18,1.878-1.751
				c0.665-0.073,1.322,0.008,1.987-0.197C374,388.396,427.438,373.333,448,373.333c17.396,0,35.698,5.292,41.094,15.208
				C481.646,392.042,472.219,396.677,461.458,401.958z"/>
		</g>
	</g>
</g>
<g>
</g>
<g>
</g>
<g>
</g>
<g>
</g>
<g>
</g>
<g>
</g>
<g>
</g>
<g>
</g>
<g>
</g>
<g>
</g>
<g>
</g>
<g>
</g>
<g>
</g>
<g>
</g>
<g>
</g>
</svg>
