<svg id="Capa_1" enable-background="new 0 0 512 512" height="512" viewBox="0 0 512 512" width="512" xmlns="http://www.w3.org/2000/svg"><g><path d="m462.638 106.728c-36.538-42.178-89.142-65.718-144.819-64.997-16.992-14.966-37.415-26.321-60.062-33.263-32.051-9.825-68.067-11.107-107.042-3.811-3.234.605-5.964 2.764-7.299 5.771-14.786 33.306-20.489 68.469-16.49 101.689 2.292 19.039 7.733 37.283 15.985 54.069-18.011 50.03-14.012 104.401 9.803 150.45l-128.28 99.758c-16.134 12.546-23.526 30.395-20.282 48.973 3.511 20.102 18.917 37.861 38.336 44.191 5.022 1.637 10.104 2.442 15.141 2.442 12.962 0 25.627-5.332 36.2-15.536l116.99-112.806c32.441 23.119 70.896 34.902 109.516 34.898 43.759-.003 87.724-15.12 123.309-45.961 78.534-68.07 87.054-187.338 18.994-265.867zm-303.019-83.338c66.945-11.196 123.034 5.379 158.352 46.937 32.151 37.831 42.128 91.861 28.153 147.846-25.766-41.748-61.819-74.843-85.092-96.204l-2.662-2.444c-4.065-3.737-10.391-3.47-14.129.596-3.737 4.066-3.47 10.392.596 14.129l2.671 2.453c23.844 21.885 61.833 56.753 86.258 99.899-11.245 1.866-22.321 2.8-33.138 2.8-49.176-.001-92.897-18.997-121.925-54.293-35.981-43.75-42.974-103.87-19.084-161.719zm216.227 273.762c-2.498-19.083-8.332-37.18-16.251-54.133 15.153-44.327 16.584-88.643 5.033-127.241 18.536 7.161 34.994 18.714 48.278 34.032 21.463 24.758 31.999 56.394 29.666 89.081-2.333 32.686-17.253 62.508-42.013 83.974-51.109 44.306-128.741 38.768-173.057-12.349-19.727-22.741-30.227-51.67-29.963-81.394 29.14 19.843 64.628 30.298 102.961 30.298 13.902 0 28.181-1.389 42.662-4.187 6.259 14.146 10.826 29.03 12.853 44.515.659 5.036 4.957 8.703 9.903 8.703.433 0 .87-.028 1.311-.085 5.475-.717 9.334-5.738 8.617-11.214zm-295.903 184.918c-11.948 11.53-23.593 10.971-31.257 8.473-12.384-4.037-22.596-15.805-24.833-28.617-1.385-7.931-.279-19.529 12.857-29.743l64.661-50.284 37.529 43.323zm73.375-70.751-36.136-41.715 45.748-35.576c4.484 6.779 9.428 13.324 14.845 19.576 5.443 6.28 11.222 12.099 17.272 17.48zm277.227-53.837c-70.198 60.839-176.811 53.223-237.656-16.977-36.307-41.904-49.372-98.244-36.139-151.183 2.076 2.894 4.236 5.731 6.505 8.49 4.74 5.763 9.828 11.131 15.212 16.119-4.54 39.716 7.664 79.415 33.926 109.688 28.182 32.507 67.937 49.165 107.912 49.161 33.131-.003 66.417-11.451 93.354-34.804 28.796-24.964 46.149-59.648 48.862-97.662 2.713-38.016-9.54-74.81-34.505-103.606-19.259-22.208-44.252-37.616-72.529-44.796-4.947-10.412-10.979-20.235-18.064-29.338 42.473 4.297 81.709 24.478 110.099 57.251 60.84 70.197 53.224 176.81-16.977 237.657z"/></g></svg>