<svg xmlns="http://www.w3.org/2000/svg" viewBox="0 0 180.95 44.81"><g id="Warstwa_2" data-name="Warstwa 2"><g id="Warstwa_1-2" data-name="Warstwa 1"><path d="M58.67,27.68A5.73,5.73,0,0,1,56.41,25a10.36,10.36,0,0,1-.78-4.22V16.56a10.56,10.56,0,0,1,.76-4.23A5.7,5.7,0,0,1,58.6,9.66a6.42,6.42,0,0,1,3.49-.92,5.75,5.75,0,0,1,3.11.89,6.51,6.51,0,0,1,2.28,2.5l-.39,3.92A4.64,4.64,0,0,0,66.65,14a3,3,0,0,0-1.28-1.32,4.27,4.27,0,0,0-2-.45,3.65,3.65,0,0,0-2.89,1.16,4.82,4.82,0,0,0-1,3.27V20.8a4.64,4.64,0,0,0,1,3.23,3.69,3.69,0,0,0,2.89,1.14,4.16,4.16,0,0,0,2-.47,3.07,3.07,0,0,0,1.28-1.36,4.79,4.79,0,0,0,.44-2.13l.26,4.05a5.42,5.42,0,0,1-1.88,2.38,5.27,5.27,0,0,1-3.21,1A6.81,6.81,0,0,1,58.67,27.68Zm.07,7.58A6.22,6.22,0,0,1,56.09,33l2.55-2.31a5.18,5.18,0,0,0,1.77,1.57,4.44,4.44,0,0,0,2.15.55,4.13,4.13,0,0,0,4.53-4.56V9.07h3.77V27.69a9.77,9.77,0,0,1-1,4.53,6.63,6.63,0,0,1-2.82,2.87,9.33,9.33,0,0,1-4.46,1A9.11,9.11,0,0,1,58.74,35.26Z"/><path d="M75.08,9.07h3.77V28.26H75.08Zm9.3,3.62a4.57,4.57,0,0,0-1.76-.31,3.75,3.75,0,0,0-2.78,1,3.71,3.71,0,0,0-1,2.75l-.39-3.7a7,7,0,0,1,2.29-2.67,5.46,5.46,0,0,1,3.11-.95,7.06,7.06,0,0,1,2.37.38,5.32,5.32,0,0,1,1.86,1.12l-2.46,3.33A2.94,2.94,0,0,0,84.38,12.69Z"/><path d="M92.67,27.54a6.68,6.68,0,0,1-2.88-2.93,10.13,10.13,0,0,1-1-4.67V17.78a11.35,11.35,0,0,1,1-4.86,6.83,6.83,0,0,1,2.76-3.07,8.56,8.56,0,0,1,4.36-1A6.92,6.92,0,0,1,101,10a7.5,7.5,0,0,1,2.6,3.48,14.81,14.81,0,0,1,.9,5.45v1.26H91.54v-3h9.35a6.41,6.41,0,0,0-1.21-3.65,3.4,3.4,0,0,0-2.8-1.3,4.08,4.08,0,0,0-3.32,1.41,6.05,6.05,0,0,0-1.17,4V20a5,5,0,0,0,1.26,3.66A4.8,4.8,0,0,0,97.22,25a5.9,5.9,0,0,0,2.27-.46,6.65,6.65,0,0,0,2-1.29L104,25.71a10.56,10.56,0,0,1-3.2,2.12,9.08,9.08,0,0,1-3.57.75A10,10,0,0,1,92.67,27.54Z"/><path d="M111.45,27.54a6.68,6.68,0,0,1-2.88-2.93,10.13,10.13,0,0,1-1-4.67V17.78a11.35,11.35,0,0,1,1-4.86,6.83,6.83,0,0,1,2.76-3.07,8.56,8.56,0,0,1,4.36-1,6.92,6.92,0,0,1,4.1,1.2,7.5,7.5,0,0,1,2.6,3.48,14.81,14.81,0,0,1,.9,5.45v1.26H110.31v-3h9.35a6.41,6.41,0,0,0-1.21-3.65,3.4,3.4,0,0,0-2.8-1.3,4.08,4.08,0,0,0-3.32,1.41,6.05,6.05,0,0,0-1.17,4V20a5,5,0,0,0,1.26,3.66A4.8,4.8,0,0,0,116,25a5.9,5.9,0,0,0,2.27-.46,6.65,6.65,0,0,0,2-1.29l2.48,2.48a10.56,10.56,0,0,1-3.2,2.12,9.08,9.08,0,0,1-3.57.75A10,10,0,0,1,111.45,27.54Z"/><path d="M126.93,9.07h3.77V28.26h-3.77Zm11.65,7.56a4.38,4.38,0,0,0-1.05-3.14,3.88,3.88,0,0,0-3-1.11,4,4,0,0,0-2.86,1,3.66,3.66,0,0,0-1,2.75l-.39-3.7a6.79,6.79,0,0,1,2.32-2.68,5.64,5.64,0,0,1,3.17-.94,6,6,0,0,1,4.83,2,8.76,8.76,0,0,1,1.71,5.78V28.26h-3.77V16.63Z"/><path d="M149.65,27.56a6.47,6.47,0,0,1-2.71-2.86,10.09,10.09,0,0,1-.93-4.52V17.06a9.9,9.9,0,0,1,.93-4.47,6.4,6.4,0,0,1,2.71-2.83,9.88,9.88,0,0,1,8.54,0,6.45,6.45,0,0,1,2.71,2.83,9.9,9.9,0,0,1,.93,4.47v3.18a9.92,9.92,0,0,1-.93,4.48,6.47,6.47,0,0,1-2.71,2.84,9.79,9.79,0,0,1-8.54,0ZM157,23.71a5.12,5.12,0,0,0,1.08-3.48V17.05A5.07,5.07,0,0,0,157,13.59a4.45,4.45,0,0,0-6.12,0,5.05,5.05,0,0,0-1.08,3.46v3.18a5.14,5.14,0,0,0,1.08,3.48,4.4,4.4,0,0,0,6.12,0Z"/><path d="M168.77,27.56a6.47,6.47,0,0,1-2.71-2.86,10.09,10.09,0,0,1-.93-4.52V17.06a9.9,9.9,0,0,1,.93-4.47,6.4,6.4,0,0,1,2.71-2.83,9.88,9.88,0,0,1,8.54,0A6.45,6.45,0,0,1,180,12.59a9.9,9.9,0,0,1,.93,4.47v3.18a9.92,9.92,0,0,1-.93,4.48,6.47,6.47,0,0,1-2.71,2.84,9.79,9.79,0,0,1-8.54,0Zm7.33-3.85a5.12,5.12,0,0,0,1.08-3.48V17.05a5.07,5.07,0,0,0-1.08-3.46,4.45,4.45,0,0,0-6.12,0,5.05,5.05,0,0,0-1.08,3.46v3.18A5.14,5.14,0,0,0,170,23.71a4.4,4.4,0,0,0,6.12,0Z"/><path d="M11.1,35.23s19.57-4.8,22.37,1.48c-3.18-8.45-10.23-11.26-19.23-9.08L1.5,30.42c2.35,9.74,13.65,15.77,24.39,14.12a26.1,26.1,0,0,0,8.52-3.45S23.69,34,11.1,35.23Z"/><path d="M17.46,6.38S10.78,26.13,4,25.1c8.84,1.87,15.19-3.23,18.2-12L26.7.87c-9.48-3.26-20.64,3-25,13a26.06,26.06,0,0,0-1.68,9S11.68,17.63,17.46,6.38Z"/><path d="M38.64,26.26S25.11,12.13,29.35,6.71c-6,6.77-5,13.41,1.1,20.35l8.44,10c7.5-6.65,7.53-19.46,1-28.16a26,26,0,0,0-7-5.91S31.68,15.7,38.64,26.26Z"/></g></g></svg>