<svg xmlns="http://www.w3.org/2000/svg" viewBox="0 0 125.32 115.58"><g id="Warstwa_2" data-name="Warstwa 2"><g id="Warstwa_1-2" data-name="Warstwa 1"><path d="M3,107.19a5.73,5.73,0,0,1-2.26-2.67A10.36,10.36,0,0,1,0,100.3V96.07a10.56,10.56,0,0,1,.76-4.23A5.7,5.7,0,0,1,3,89.17a6.42,6.42,0,0,1,3.49-.92,5.75,5.75,0,0,1,3.11.89,6.51,6.51,0,0,1,2.28,2.5l-.39,3.91A4.64,4.64,0,0,0,11,93.46a3,3,0,0,0-1.28-1.32,4.27,4.27,0,0,0-2-.45,3.65,3.65,0,0,0-2.89,1.16,4.82,4.82,0,0,0-1,3.27v4.18a4.64,4.64,0,0,0,1,3.23,3.69,3.69,0,0,0,2.89,1.14,4.16,4.16,0,0,0,2-.47A3.07,3.07,0,0,0,11,102.84a4.65,4.65,0,0,0,.44-2.13l.26,4.05a5.42,5.42,0,0,1-1.88,2.38,5.27,5.27,0,0,1-3.21,1A6.63,6.63,0,0,1,3,107.19Zm.08,7.58A6.22,6.22,0,0,1,.47,112.5L3,110.19a5.18,5.18,0,0,0,1.77,1.57,4.44,4.44,0,0,0,2.15.55,4.54,4.54,0,0,0,3.35-1.19,4.58,4.58,0,0,0,1.18-3.37V88.58h3.77V107.2a9.77,9.77,0,0,1-1,4.53,6.63,6.63,0,0,1-2.82,2.87,9.33,9.33,0,0,1-4.46,1A8.93,8.93,0,0,1,3.12,114.77Z"/><path d="M19.45,88.58h3.77v19.19H19.45Zm9.3,3.63A4.57,4.57,0,0,0,27,91.9a3.75,3.75,0,0,0-2.78,1,3.71,3.71,0,0,0-1,2.75l-.39-3.7a7,7,0,0,1,2.29-2.67,5.46,5.46,0,0,1,3.11-1,7.06,7.06,0,0,1,2.37.38,5.32,5.32,0,0,1,1.86,1.12L30,93.15A2.87,2.87,0,0,0,28.75,92.21Z"/><path d="M37,107.05a6.68,6.68,0,0,1-2.88-2.93,10.13,10.13,0,0,1-1-4.67V97.29a11.35,11.35,0,0,1,.95-4.86,6.83,6.83,0,0,1,2.76-3.07,8.56,8.56,0,0,1,4.36-1,6.92,6.92,0,0,1,4.1,1.2A7.5,7.5,0,0,1,47.94,93a14.81,14.81,0,0,1,.9,5.45V99.7H35.91v-3h9.35A6.41,6.41,0,0,0,44.05,93a3.4,3.4,0,0,0-2.8-1.3,4.08,4.08,0,0,0-3.32,1.41,6.05,6.05,0,0,0-1.17,4v2.44A5,5,0,0,0,38,103.21a4.8,4.8,0,0,0,3.57,1.28,5.9,5.9,0,0,0,2.27-.46,6.65,6.65,0,0,0,2-1.29l2.48,2.48a10.56,10.56,0,0,1-3.2,2.12,9.08,9.08,0,0,1-3.57.75A10,10,0,0,1,37,107.05Z"/><path d="M55.82,107.05a6.68,6.68,0,0,1-2.88-2.93,10.13,10.13,0,0,1-1-4.67V97.29a11.35,11.35,0,0,1,.95-4.86,6.83,6.83,0,0,1,2.76-3.07,8.56,8.56,0,0,1,4.36-1,6.92,6.92,0,0,1,4.1,1.2A7.5,7.5,0,0,1,66.72,93a14.81,14.81,0,0,1,.9,5.45V99.7H54.7v-3h9.35A6.41,6.41,0,0,0,62.84,93a3.4,3.4,0,0,0-2.8-1.3,4.08,4.08,0,0,0-3.32,1.41,6.05,6.05,0,0,0-1.17,4v2.44a5,5,0,0,0,1.26,3.66,4.8,4.8,0,0,0,3.57,1.28,5.9,5.9,0,0,0,2.27-.46,6.65,6.65,0,0,0,2-1.29l2.48,2.48a10.56,10.56,0,0,1-3.2,2.12,9.08,9.08,0,0,1-3.57.75A10.08,10.08,0,0,1,55.82,107.05Z"/><path d="M71.3,88.58h3.77v19.19H71.3ZM83,96.14a4.38,4.38,0,0,0-1-3.14,3.88,3.88,0,0,0-3-1.11,4,4,0,0,0-2.86,1,3.66,3.66,0,0,0-1,2.75l-.39-3.7A6.79,6.79,0,0,1,77,89.24a5.64,5.64,0,0,1,3.17-.94,6,6,0,0,1,4.83,2,8.76,8.76,0,0,1,1.71,5.78v11.65H82.94V96.14Z"/><path d="M94,107.07a6.47,6.47,0,0,1-2.71-2.86,10.09,10.09,0,0,1-.93-4.52V96.57a9.9,9.9,0,0,1,.93-4.47A6.4,6.4,0,0,1,94,89.27a9.88,9.88,0,0,1,8.54,0,6.45,6.45,0,0,1,2.71,2.83,9.9,9.9,0,0,1,.93,4.47v3.18a9.92,9.92,0,0,1-.93,4.48,6.47,6.47,0,0,1-2.71,2.84,9.79,9.79,0,0,1-8.54,0Zm7.34-3.84a5.12,5.12,0,0,0,1.08-3.48V96.57a5.07,5.07,0,0,0-1.08-3.46,4.45,4.45,0,0,0-6.12,0,5.05,5.05,0,0,0-1.08,3.46v3.18a5.14,5.14,0,0,0,1.08,3.48,3.83,3.83,0,0,0,3.06,1.24A3.92,3.92,0,0,0,101.36,103.23Z"/><path d="M113.14,107.07a6.47,6.47,0,0,1-2.71-2.86,10.09,10.09,0,0,1-.93-4.52V96.57a9.9,9.9,0,0,1,.93-4.47,6.4,6.4,0,0,1,2.71-2.83,9.88,9.88,0,0,1,8.54,0,6.45,6.45,0,0,1,2.71,2.83,9.9,9.9,0,0,1,.93,4.47v3.18a9.92,9.92,0,0,1-.93,4.48,6.47,6.47,0,0,1-2.71,2.84,9.79,9.79,0,0,1-8.54,0Zm7.33-3.84a5.12,5.12,0,0,0,1.08-3.48V96.57a5.07,5.07,0,0,0-1.08-3.46,4.45,4.45,0,0,0-6.12,0,5.05,5.05,0,0,0-1.08,3.46v3.18a5.14,5.14,0,0,0,1.08,3.48,3.83,3.83,0,0,0,3.06,1.24A3.89,3.89,0,0,0,120.47,103.23Z"/><path d="M43.94,56.54s31.41-7.71,35.9,2.37C74.73,45.35,63.42,40.85,49,44.34L28.52,48.81C32.3,64.45,50.44,74.13,67.66,71.47c6.78-1.07,13.68-5.53,13.68-5.53S64.15,54.65,43.94,56.54Z"/><path d="M54.16,10.24S43.44,41.94,32.53,40.29C46.71,43.29,56.9,35.1,61.74,21L69,1.39C53.76-3.83,35.84,6.25,28.81,22.2c-2.74,6.29-2.69,14.51-2.69,14.51S44.88,28.3,54.16,10.24Z"/><path d="M88.14,42.16S66.43,19.47,73.23,10.78C63.64,21.65,65.14,32.31,75,43.44l13.54,16c12-10.67,12.08-31.23,1.66-45.2C86.07,8.73,78.9,4.73,78.9,4.73S77,25.2,88.14,42.16Z"/></g></g></svg>